<svg height="512pt" viewBox="0 0 512.00099 512" width="512pt" xmlns="http://www.w3.org/2000/svg"><path d="m80 18.507812c-10.914062 8.007813-18 20.921876-18 35.492188v403.996094h36v-403.996094c0-14.570312-7.089844-27.484375-18-35.492188zm0 0" fill="#ffb954"/><path d="m98 54h276c11.042969 0 20 8.953125 20 20v384h-296" fill="#fff"/><path d="m339.449219 482v-24h-241.449219c0-17.496094-10.210938-32.605469-25-39.695312-14.789062 7.089843-25 22.199218-25 39.691406 0 24.300781 19.699219 44 44 44h227.449219c11.046875.003906 20-8.953125 20-19.996094zm0 0" fill="#feda9b"/><path d="m138 94h216v64h-216zm0 0" fill="#fff"/><path d="m181 206h75v96h-75zm0 0" fill="#72d8ff"/><path d="m207.5 94h146.5v64h-146.5zm0 0" fill="#ff5d5d"/><path d="m463.582031 496.742188 4.773438-4.777344c7.011719-7.011719 7.011719-18.378906 0-25.390625l-178.378907-178.382813-30.167968 30.164063 178.382812 178.382812c7.011719 7.011719 18.378906 7.011719 25.390625.003907zm0 0" fill="#4dbaf6"/><path d="m463.582031 496.742188 6.660157-6.664063c7.011718-7.011719 7.011718-18.378906 0-25.386719l-29.765626-29.769531-32.050781 32.050781 29.765625 29.765625c7.011719 7.011719 18.378906 7.011719 25.390625.003907zm0 0" fill="#ffb954"/><path d="m223.667969 223.667969 94.691406 36.140625-58.550781 58.550781zm0 0" fill="#d8d8e4"/><path d="m98 358c-2.628906 0-5.210938 1.066406-7.070312 2.929688-1.859376 1.859374-2.929688 4.4375-2.929688 7.070312 0 2.628906 1.070312 5.210938 2.929688 7.066406 1.859374 1.863282 4.441406 2.933594 7.070312 2.933594s5.210938-1.070312 7.070312-2.933594c1.859376-1.855468 2.929688-4.4375 2.929688-7.066406 0-2.632812-1.070312-5.210938-2.929688-7.070312-1.859374-1.859376-4.441406-2.929688-7.070312-2.929688zm0 0"/><path d="m394 272c-2.632812 0-5.210938 1.070312-7.070312 2.929688-1.859376 1.859374-2.929688 4.441406-2.929688 7.070312s1.070312 5.210938 2.929688 7.070312c1.859374 1.859376 4.4375 2.929688 7.070312 2.929688 2.628906 0 5.207031-1.070312 7.070312-2.929688 1.859376-1.859374 2.929688-4.441406 2.929688-7.070312s-1.070312-5.210938-2.929688-7.070312c-1.863281-1.859376-4.441406-2.929688-7.070312-2.929688zm0 0"/><path d="m364 94c0-5.523438-4.476562-10-10-10h-216c-5.523438 0-10 4.476562-10 10v64c0 5.523438 4.476562 10 10 10h216c5.523438 0 10-4.476562 10-10zm-20 54h-196v-44h196zm0 0"/><path d="m354 196h-49c-5.523438 0-10 4.476562-10 10s4.476562 10 10 10h49c5.523438 0 10-4.476562 10-10s-4.476562-10-10-10zm0 0"/><path d="m503.8125 431.117188-178.382812-178.382813c-.996094-.992187-2.1875-1.769531-3.503907-2.269531l-94.691406-36.140625c-3.683594-1.40625-7.847656-.515625-10.636719 2.269531-2.789062 2.789062-3.675781 6.953125-2.273437 10.640625l24.722656 64.765625h-91.046875v-76h49c5.523438 0 10-4.476562 10-10s-4.476562-10-10-10h-59c-5.523438 0-10 4.476562-10 10v96c0 5.519531 4.476562 10 10 10h108.679688l3.789062 9.921875c.5 1.316406 1.273438 2.511719 2.269531 3.507813l14.570313 14.570312h-129.308594c-5.523438 0-10 4.476562-10 10 0 5.519531 4.476562 10 10 10h149.308594l28 28h-177.308594c-5.523438 0-10 4.476562-10 10 0 5.519531 4.476562 10 10 10h197.308594l40 40h-268.238282c-4.703124-25.015625-26.710937-44-53.070312-44-12.878906 0-24.710938 4.535156-34 12.085938v-362.085938c0-18.746094 15.25-34 34-34 18.746094 0 34 15.253906 34 34v270.597656c0 5.523438 4.476562 10 10 10s10-4.476562 10-10v-260.597656h266c5.511719 0 10 4.484375 10 10v172.292969c0 5.523437 4.476562 10 10 10 5.519531 0 10-4.476563 10-10v-172.292969c0-16.542969-13.460938-30-30-30h-266.945312c-4.703126-25.011719-26.695313-44-53.054688-44-29.777344 0-54 24.222656-54 54v404c0 29.773438 24.222656 54 54 54h265.449219c16.542969 0 30-13.460938 30-30v-14h44.550781c.414062 0 .820312-.035156 1.222656-.085938l35.898438 35.898438c5.449218 5.449219 12.605468 8.171875 19.765625 8.171875 7.15625 0 14.316406-2.722656 19.765625-8.171875l33.160156-33.164062c5.28125-5.277344 8.1875-12.296876 8.1875-19.765626 0-7.464843-2.90625-14.484374-8.1875-19.765624zm-174.363281 50.882812c0 5.511719-4.484375 10-10 10h-265.449219c-18.75 0-34-15.253906-34-34 0-18.75 15.25-34 34-34 18.746094 0 34 15.25 34 34 0 5.519531 4.476562 10 10 10h231.449219zm-55.496094-163.640625 44.40625-44.410156 134.472656 134.476562-44.40625 44.40625zm26.421875-54.710937-36.726562 36.726562-22.671876-59.398438zm189.296875 192.859374-33.164063 33.160157c-3.097656 3.105469-8.144531 3.105469-11.246093 0l-22.695313-22.695313 44.40625-44.40625 22.699219 22.695313c1.5 1.503906 2.328125 3.5 2.328125 5.621093 0 2.125-.828125 4.121094-2.328125 5.625zm0 0"/></svg>