<?xml version="1.0" encoding="iso-8859-1"?>
<!-- Generator: Adobe Illustrator 19.0.0, SVG Export Plug-In . SVG Version: 6.00 Build 0)  -->
<svg version="1.1" id="Capa_1" xmlns="http://www.w3.org/2000/svg" xmlns:xlink="http://www.w3.org/1999/xlink" x="0px" y="0px"
	 viewBox="0 0 512 512" style="enable-background:new 0 0 512 512;" xml:space="preserve">
<path style="fill:#2E9DE3;" d="M113,444V181.597c0-14.128,8.957-25.583,20.005-25.583h24.941h277.316h24.731
	c11.048,0,20.005,11.455,20.005,25.583l0,0V444H113z"/>
<path style="fill:#FFFFFF;" d="M438,444V209.479c0-5.235-4.244-9.479-9.479-9.479H382.5H128H83.479
	c-5.235,0-9.479,4.244-9.479,9.479V444H438z"/>
<path style="fill:#FF5D5D;" d="M375.157,204.152l59.169-59l-57.195-67.1C369.532,69.136,358.405,64,346.69,64h-42.708h-0.588v14.969
	c0,26.099-21.219,47.257-47.393,47.257l0,0l0,0c-20.218,0-37.469-12.629-44.278-30.404l-42.048,49.33l59.169,59l22.225-22.162V344
	h103.396V181.991L375.157,204.152z"/>
<path style="fill:#2E9DE3;" d="M502,463v-17l0,0h-87.192h-90.667h-45.628h-90.667h-87.18v17c0,21.539,17.461,39,39,39H463
	C484.539,502,502,484.539,502,463z"/>
<g>
	<path style="fill:#FFFFFF;" d="M282.67,474h-53.34c-11.784,0-21.337-9.553-21.337-21.337V446h96.015v6.663
		C304.008,464.447,294.455,474,282.67,474z"/>
	<path style="fill:#FFFFFF;" d="M228.843,204.152l-59.169-59l42.048-49.33c-2.006-5.236-3.115-10.914-3.115-16.853V64h-0.588H165.31
		c-11.715,0-22.842,5.136-30.442,14.052l-57.195,67.1l59.169,59l22.225-22.162V344h92V181.991L228.843,204.152z"/>
</g>
<g>
	<path style="fill:#FF5D5D;" d="M256,126.226L256,126.226L256,126.226c26.175,0,47.393-21.158,47.393-47.257V64h-2.786h-0.588
		H257.31c-11.715,0-22.842,5.136-30.442,14.052l-15.147,17.77C218.531,113.597,235.781,126.226,256,126.226z"/>
	<circle style="fill:#FF5D5D;" cx="286.14" cy="259.99" r="16.01"/>
	<circle style="fill:#FF5D5D;" cx="225.86" cy="193.51" r="16.01"/>
</g>
<path d="M257.75,334c-2.63,0-5.21,1.069-7.07,2.93c-1.86,1.86-2.93,4.44-2.93,7.07s1.07,5.21,2.93,7.069
	c1.86,1.86,4.44,2.931,7.07,2.931s5.21-1.07,7.07-2.931c1.86-1.859,2.93-4.439,2.93-7.069s-1.07-5.21-2.93-7.07
	S260.38,334,257.75,334z"/>
<path d="M222.922,281.019c1.554,0.877,3.241,1.294,4.907,1.294c3.49,0,6.879-1.83,8.717-5.086l46.377-82.151
	c2.715-4.81,1.018-10.909-3.792-13.624s-10.909-1.018-13.624,3.792l-46.377,82.151C216.415,272.204,218.112,278.304,222.922,281.019
	z"/>
<path d="M260.13,259.992c0,14.341,11.667,26.008,26.008,26.008s26.008-11.667,26.008-26.008s-11.667-26.009-26.008-26.009
	S260.13,245.651,260.13,259.992z M286.138,253.983c3.313,0,6.008,2.695,6.008,6.009c0,3.313-2.695,6.008-6.008,6.008
	s-6.008-2.695-6.008-6.008C280.13,256.679,282.826,253.983,286.138,253.983z"/>
<path d="M225.862,219.521c14.341,0,26.008-11.667,26.008-26.008s-11.667-26.008-26.008-26.008s-26.008,11.667-26.008,26.008
	S211.521,219.521,225.862,219.521z M225.862,187.505c3.313,0,6.008,2.695,6.008,6.008s-2.695,6.008-6.008,6.008
	c-3.313,0-6.008-2.695-6.008-6.008S222.549,187.505,225.862,187.505z"/>
<path d="M196.85,396c-2.63,0-5.21,1.069-7.07,2.93s-2.93,4.44-2.93,7.07s1.07,5.21,2.93,7.069c1.86,1.86,4.44,2.931,7.07,2.931
	s5.21-1.07,7.07-2.931c1.86-1.859,2.93-4.439,2.93-7.069s-1.07-5.21-2.93-7.07S199.48,396,196.85,396z"/>
<path style="fill:#FFFFFF;" d="M251.027,78.969V64h-42.42v14.969c0,26.099,21.219,47.257,47.393,47.257l0,0
	c7.627,0,14.827-1.807,21.21-4.999C261.688,113.466,251.027,97.464,251.027,78.969z"/>
<path style="fill:#EF3C3C;" d="M303.393,78.969V64h-52.366v14.969c0,18.494,10.661,34.497,26.183,42.259
	C292.732,113.466,303.393,97.464,303.393,78.969z"/>
<path d="M502,436h-12.003V181.598c0-19.621-15.441-35.584-34.42-35.584h-11.298c0.223-2.58-0.543-5.237-2.342-7.349l-57.195-67.101
	C375.227,60.402,361.358,54,346.689,54h-43.296c-0.696,0-1.375,0.072-2.031,0.207c-0.656-0.135-1.335-0.207-2.031-0.207h-29.068
	c8.727-4.977,14.629-14.362,14.629-25.107C284.892,12.961,271.931,0,256,0s-28.892,12.961-28.892,28.893c0,5.522,4.477,10,10,10
	s10-4.478,10-10c0-4.903,3.989-8.893,8.892-8.893c4.903,0,8.892,3.989,8.892,8.893s-3.989,8.892-8.892,8.892
	c-5.523,0-10,4.478-10,10V54h-33.869c-0.602,0-1.189,0.063-1.762,0.165c-0.573-0.102-1.16-0.165-1.762-0.165h-43.296
	c-14.668,0-28.538,6.402-38.052,17.564l-57.195,67.101c-1.8,2.111-2.565,4.768-2.342,7.349H56.417
	c-18.979,0-34.42,15.963-34.42,35.584V436H10c-5.523,0-10,4.478-10,10v17c0,27.019,21.981,49,49,49h414c27.019,0,49-21.981,49-49
	v-17C512,440.478,507.523,436,502,436z M469.997,181.598V436H448V209.479c0-10.741-8.738-19.479-19.479-19.479h-25.009
	l24.055-23.986h28.009C463.528,166.014,469.997,173.005,469.997,181.598z M218.607,74h74.786v4.97
	c0,20.544-16.774,37.257-37.393,37.257s-37.393-16.713-37.393-37.257V74z M142.479,84.539C148.188,77.841,156.509,74,165.311,74
	h33.296v4.97c0,31.571,25.747,57.257,57.393,57.257s57.393-25.686,57.393-57.257V74h33.296c8.801,0,17.123,3.841,22.832,10.539
	l51.195,60.063l-45.303,45.173l-13.64-14.608c-2.803-3.001-7.157-3.983-10.977-2.478c-3.821,1.506-6.332,5.195-6.332,9.303V334H294
	c-5.523,0-10,4.478-10,10s4.477,10,10,10h60.464c5.523,0,10-4.478,10-10V207.354l3.384,3.624c1.849,1.979,4.422,3.125,7.131,3.173
	c2.721,0.035,5.321-1.003,7.239-2.917l1.237-1.233H428v226H84v-20h73.009c5.523,0,10-4.478,10-10s-4.477-10-10-10H84V210h44
	c0.175,0,0.346-0.017,0.519-0.026l1.263,1.26c3.903,3.893,10.219,3.893,14.122,0l5.164-5.149V344c0,5.522,4.477,10,10,10h58.682
	c5.523,0,10-4.478,10-10s-4.477-10-10-10h-48.682V181.991c0-4.042-2.433-7.687-6.167-9.236c-3.733-1.548-8.032-0.699-10.895,2.155
	l-15.164,15.12l-45.56-45.429L142.479,84.539z M293.506,456c-1.428,4.628-5.746,8-10.836,8h-53.34c-5.09,0-9.408-3.372-10.836-8
	H293.506z M41.997,181.598c0-8.593,6.469-15.584,14.42-15.584h28.016L108.488,190H83.479C72.738,190,64,198.738,64,209.479V436
	H41.997V181.598z M492,463c0,15.99-13.009,29-29,29H49c-15.991,0-29-13.01-29-29v-7h178.172c1.672,15.716,15.005,28,31.157,28
	h53.341c16.152,0,29.486-12.284,31.157-28H492V463z"/>
<g>
</g>
<g>
</g>
<g>
</g>
<g>
</g>
<g>
</g>
<g>
</g>
<g>
</g>
<g>
</g>
<g>
</g>
<g>
</g>
<g>
</g>
<g>
</g>
<g>
</g>
<g>
</g>
<g>
</g>
</svg>
