<svg height="512pt" viewBox="0 0 512 512" width="512pt" xmlns="http://www.w3.org/2000/svg"><path d="m472 502c3.203125 0 6.402344-.515625 9.46875-1.535156 3.460938-10.429688 1.050781-22.382813-7.253906-30.679688l-20-20-23.425782 23.425782 20 20c5.859376 5.859374 13.53125 8.789062 21.210938 8.789062zm0 0" fill="#feb756"/><path d="m335.355469 345.054688-16.367188 16.367187 111.800781 111.789063 23.425782-23.425782-111.789063-111.800781zm0 0" fill="#fd3c65"/><path d="m354.351562 326.058594-28.292968 28.292968-40.820313-40.832031c10.5-8.289062 19.992188-17.78125 28.28125-28.28125zm0 0" fill="#fff5cd"/><path d="m211 12.828125c-79.085938 14.574219-139 83.871094-139 167.171875s59.910156 152.59375 138.992188 167.171875c27.675781-5.101563 53.011718-16.898437 74.246093-33.652344 10.5-8.289062 19.992188-17.78125 28.28125-28.28125 22.839844-28.949219 36.480469-65.507812 36.480469-105.238281 0-83.300781-59.914062-152.597656-139-167.171875zm0 0" fill="#4dbbeb"/><path d="m311 180c0 30.613281-10.511719 58.789062-28.109375 81.097656-6.390625 8.089844-13.703125 15.402344-21.792969 21.792969-22.308594 17.597656-50.484375 28.109375-81.097656 28.109375-72.351562 0-131-58.648438-131-131s58.648438-131 131-131 131 58.648438 131 131zm0 0" fill="#fff"/><path d="m214.5 53.601562c-55.609375 15.140626-96.5 65.988282-96.5 126.398438s40.890625 111.257812 96.5 126.398438c17.195312-4.683594 32.988281-12.773438 46.597656-23.507813 8.089844-6.390625 15.402344-13.703125 21.792969-21.792969 17.597656-22.308594 28.109375-50.484375 28.109375-81.097656 0-60.410156-40.890625-111.257812-96.5-126.398438zm0 0" fill="#c4f0ff"/><path d="m181.390625 130.019531c49.070313.910157 88.609375 49.980469 88.609375 49.980469s-39.539062 49.070312-88.609375 49.980469c26.96875-.742188 48.609375-22.839844 48.609375-49.980469s-21.640625-49.238281-48.609375-49.980469zm0 0" fill="#fff"/><path d="m181.390625 130.019531c26.96875.742188 48.609375 22.839844 48.609375 49.980469s-21.640625 49.238281-48.609375 49.980469c-.460937.007812-.921875.019531-1.390625.019531s-.929688-.011719-1.390625-.019531c-26.96875-.742188-48.609375-22.839844-48.609375-49.980469s21.640625-49.238281 48.609375-49.980469c.460937-.007812.921875-.019531 1.390625-.019531s.929688.011719 1.390625.019531zm8.609375 49.980469c0-5.519531-4.480469-10-10-10s-10 4.480469-10 10 4.480469 10 10 10 10-4.480469 10-10zm0 0" fill="#4dbbeb"/><path d="m178.609375 130.019531c-26.96875.742188-48.609375 22.839844-48.609375 49.980469s21.640625 49.238281 48.609375 49.980469c-49.070313-.910157-88.609375-49.980469-88.609375-49.980469s39.539062-49.070312 88.609375-49.980469zm0 0" fill="#fff"/><path d="m95.148438 95.148438c3.902343-3.910157 3.902343-10.238282 0-14.136719-3.910157-3.910157-10.238282-3.910157-14.136719 0-3.910157 3.898437-3.910157 10.226562 0 14.136719 3.898437 3.902343 10.226562 3.902343 14.136719 0zm0 0"/><path d="m180 40c-22.304688 0-44.511719 5.398438-64.222656 15.609375-4.902344 2.542969-6.816406 8.578125-4.277344 13.480469 2.542969 4.90625 8.578125 6.820312 13.480469 4.277344 17.121093-8.871094 35.628906-13.367188 55.019531-13.367188 66.167969 0 120 53.832031 120 120s-53.832031 120-120 120-120-53.832031-120-120c0-19.382812 4.496094-37.890625 13.367188-55.007812 2.542968-4.90625.628906-10.9375-4.273438-13.480469-4.90625-2.542969-10.941406-.625-13.480469 4.277343-10.214843 19.707032-15.613281 41.910157-15.613281 64.210938 0 77.195312 62.804688 140 140 140s140-62.804688 140-140-62.804688-140-140-140zm0 0"/><path d="m500.28125 443.71875-131.789062-131.796875c-1.875-1.875-4.421876-2.929687-7.070313-2.929687-2.652344 0-5.199219 1.054687-7.074219 2.925781l-27.628906-27.621094c21.800781-30.550781 33.28125-66.417969 33.28125-104.296875 0-99.253906-80.746094-180-180-180s-180 80.746094-180 180 80.746094 180 180 180c37.878906 0 73.746094-11.480469 104.296875-33.28125l27.621094 27.628906c-1.875 1.875-2.929688 4.421875-2.929688 7.074219 0 2.648437 1.054688 5.195313 2.929688 7.070313l111.800781 111.789062 20 20c7.554688 7.558594 17.601562 11.71875 28.28125 11.71875s20.726562-4.160156 28.277344-11.714844c7.558594-7.554687 11.722656-17.597656 11.722656-28.285156s-4.164062-20.730469-11.71875-28.28125zm-174.21875-103.511719-26.054688-26.058593c4.96875-4.449219 9.691407-9.171876 14.140626-14.140626l26.058593 26.050782zm-306.0625-160.207031c0-88.222656 71.777344-160 160-160s160 71.777344 160 160c0 36.328125-11.871094 70.578125-34.328125 99.042969-7.792969 9.871093-16.753906 18.832031-26.625 26.625-28.46875 22.460937-62.71875 34.332031-99.046875 34.332031-88.222656 0-160-71.777344-160-160zm341.417969 153.132812 97.648437 97.65625-28.277344 28.277344-97.65625-97.644531zm124.722656 153.007813c-3.78125 3.777344-8.800781 5.859375-14.140625 5.859375s-10.359375-2.082031-14.140625-5.859375l-12.925781-12.929687 28.277344-28.277344 12.929687 12.929687c3.777344 3.777344 5.859375 8.796875 5.859375 14.136719s-2.082031 10.359375-5.859375 14.140625zm0 0"/><path d="m82.214844 173.726562c-2.953125 3.664063-2.953125 8.886719 0 12.546876 1.730468 2.152343 43.039062 52.667968 96.132812 53.703124h.039063c.535156.011719 1.066406.023438 1.613281.023438.511719 0 1.015625-.011719 1.554688-.023438h.019531.015625.074218c.019532 0 .035157-.003906.054688-.003906 53.058594-1.074218 94.335938-51.546875 96.066406-53.699218 2.953125-3.664063 2.953125-8.886719 0-12.546876-1.730468-2.152343-43.007812-52.625-96.066406-53.699218-.019531 0-.035156-.003906-.054688-.003906-.015624 0-.035156 0-.050781 0-.011719 0-.023437 0-.035156 0h-.003906c-1.019531-.023438-2.019531-.023438-3.128907 0-.007812 0-.015624 0-.023437 0-.011719 0-.027344 0-.042969 0s-.027344 0-.042968 0c-.019532 0-.039063.003906-.054688.003906-53.058594 1.074218-94.335938 51.546875-96.066406 53.699218zm96.617187-33.707031c.386719-.011719.773438-.019531 1.167969-.019531.386719 0 .761719.007812 1.140625.015625 21.789063.613281 38.859375 18.167969 38.859375 39.984375 0 21.824219-17.078125 39.386719-38.832031 39.980469-.773438.019531-1.613281.015625-2.285157.003906-21.804687-.597656-38.882812-18.160156-38.882812-39.984375s17.078125-39.386719 38.832031-39.980469zm77.726563 39.992188c-4.289063 4.476562-10.839844 10.792969-19.027344 17.085937 1.625-5.484375 2.46875-11.230468 2.46875-17.097656 0-5.84375-.839844-11.5625-2.449219-17.027344 8.171875 6.28125 14.722657 12.578125 19.007813 17.039063zm-134.089844-17.109375c-1.625 5.484375-2.46875 11.230468-2.46875 17.097656 0 5.84375.839844 11.5625 2.449219 17.027344-8.171875-6.28125-14.71875-12.578125-19.003907-17.039063 4.285157-4.476562 10.835938-10.792969 19.023438-17.085937zm0 0"/><path d="m180 200c11.027344 0 20-8.972656 20-20s-8.972656-20-20-20-20 8.972656-20 20 8.972656 20 20 20zm0 0"/></svg>