<svg height="512pt" viewBox="-69 0 511 512" width="512pt" xmlns="http://www.w3.org/2000/svg"><path d="m363.695312 454.53125v-217.496094c0-17.3125-14.035156-31.347656-31.347656-31.347656h-177.304687c-17.3125 0-31.347657 14.035156-31.347657 31.347656v217.496094c0 25.96875 21.050782 47.019531 47.019532 47.019531h145.960937c25.96875 0 47.019531-21.050781 47.019531-47.019531zm0 0" fill="#0a537f"/><path d="m211.851562 13.144531c-31.527343 7.023438-58.121093 27.28125-73.621093 54.625 13.082031-11.601562 30.273437-18.667969 49.09375-18.667969 40.851562 0 74.089843 33.238282 74.089843 74.09375v82.492188h38.65625v-82.492188c0-53.746093-37.804687-98.824218-88.21875-110.050781zm0 0" fill="#003359"/><path d="m229.28125 322.707031c0-23.171875-18.785156-41.957031-41.957031-41.957031s-41.957031 18.785156-41.957031 41.957031c0 19.367188 13.125 35.660157 30.964843 40.492188l-10.570312 64.425781h43.121093l-10.566406-64.425781c17.835938-4.832031 30.964844-21.125 30.964844-40.492188zm0 0" fill="#003359"/><path d="m332.347656 195.238281h-21.832031v-72.042969c0-67.929687-55.261719-123.195312-123.191406-123.195312-67.933594 0-123.195313 55.265625-123.195313 123.195312v72.042969h-21.832031c-23.046875 0-41.796875 18.75-41.796875 41.796875v217.496094c0 31.6875 25.78125 57.46875 57.46875 57.46875h258.707031c31.6875 0 57.46875-25.78125 57.46875-57.46875v-217.496094c0-23.046875-18.75-41.796875-41.796875-41.796875zm-247.324218-72.042969c0-56.40625 45.890624-102.296874 102.300781-102.296874 56.40625 0 102.296875 45.890624 102.296875 102.296874v72.042969h-17.757813v-72.042969c0-46.617187-37.925781-84.539062-84.539062-84.539062-46.617188 0-84.542969 37.921875-84.542969 84.539062v72.042969h-17.757812zm38.65625 72.042969v-72.042969c0-35.09375 28.550781-63.644531 63.644531-63.644531 35.089843 0 63.640625 28.550781 63.640625 63.644531v72.042969zm229.566406 259.292969c0 20.164062-16.40625 36.570312-36.570313 36.570312h-258.707031c-20.164062 0-36.570312-16.40625-36.570312-36.570312v-217.496094c0-11.523437 9.375-20.898437 20.898437-20.898437h290.050781c11.523438 0 20.898438 9.375 20.898438 20.898437zm0 0"/><path d="m208.882812 438.074219h-43.121093c-3.070313 0-5.980469-1.347657-7.964844-3.683594-1.984375-2.339844-2.84375-5.429687-2.347656-8.457031l9.1875-55.984375c-17.878907-8.59375-29.71875-26.871094-29.71875-47.242188 0-28.894531 23.507812-52.40625 52.40625-52.40625 28.894531 0 52.402343 23.511719 52.402343 52.40625 0 20.371094-11.839843 38.648438-29.71875 47.242188l9.1875 55.984375c.496094 3.027344-.363281 6.117187-2.347656 8.457031-1.984375 2.335937-4.898437 3.683594-7.964844 3.683594zm-30.816406-20.898438h18.515625l-8.578125-52.285156c-.867187-5.289063 2.40625-10.375 7.578125-11.777344 13.6875-3.707031 23.25-16.210937 23.25-30.40625 0-17.375-14.136719-31.507812-31.507812-31.507812-17.375 0-31.507813 14.132812-31.507813 31.507812 0 14.195313 9.558594 26.699219 23.25 30.40625 5.171875 1.402344 8.445313 6.488281 7.578125 11.777344zm0 0"/><path d="m53.578125 296.488281c-5.769531 0-10.449219-4.675781-10.449219-10.449219v-.136718c0-5.769532 4.679688-10.449219 10.449219-10.449219s10.449219 4.679687 10.449219 10.449219v.136718c0 5.773438-4.679688 10.449219-10.449219 10.449219zm0 0"/><path d="m53.578125 431.785156c-5.769531 0-10.449219-4.679687-10.449219-10.449218v-101.492188c0-5.769531 4.679688-10.449219 10.449219-10.449219s10.449219 4.679688 10.449219 10.449219v101.492188c0 5.769531-4.679688 10.449218-10.449219 10.449218zm0 0"/></svg>