<?xml version="1.0" encoding="iso-8859-1"?>
<!-- Generator: Adobe Illustrator 19.0.0, SVG Export Plug-In . SVG Version: 6.00 Build 0)  -->
<svg version="1.1" id="Capa_1" xmlns="http://www.w3.org/2000/svg" xmlns:xlink="http://www.w3.org/1999/xlink" x="0px" y="0px"
	 viewBox="0 0 512 512" style="enable-background:new 0 0 512 512;" xml:space="preserve">
<path style="fill:#FF8E4B;" d="M301.081,453.303l-17.351-3.208c-0.826-0.153-1.623-0.377-2.39-0.659
	c-0.767,0.282-1.564,0.507-2.391,0.659l-17.342,3.207c-16.831,3.112-29.045,17.791-29.045,34.907V502h97.564v-13.789
	C330.127,471.094,317.913,456.415,301.081,453.303z"/>
<path style="fill:#92F7EA;" d="M472.954,291.822l-17.351-3.208c-0.826-0.153-1.623-0.377-2.39-0.659
	c-0.767,0.282-1.564,0.506-2.391,0.659l-17.342,3.207c-16.831,3.112-29.045,17.791-29.045,34.907v13.79H502v-13.789
	C502,309.613,489.786,294.934,472.954,291.822z"/>
<path style="fill:#FCB17E;" d="M256.138,475.513l22.147-27.637c-3.973-2.648-6.532-7.152-6.532-12.176v-3.858h-31.26v3.859
	c0,5.017-2.553,9.517-6.518,12.167L256.138,475.513z"/>
<path style="fill:#B3B6C3;" d="M272.627,336.69c-12.905,6.166-21.821,19.338-21.821,34.594v6.721
	c6.928-2.496,13.168-6.783,18.007-12.557l18.738,11.009c2.421-1.146,4.728-2.53,6.897-4.122v-1.051
	C294.448,356.028,285.532,342.856,272.627,336.69z"/>
<path style="fill:#FCB17E;" d="M428.011,314.031l22.147-27.637c-3.973-2.648-6.532-7.152-6.532-12.176v-3.858h-31.26v3.859
	c0,5.017-2.553,9.517-6.518,12.167L428.011,314.031z"/>
<path style="fill:#FFB954;" d="M444.712,175.311c-12.79,6.209-21.609,19.32-21.609,34.492v6.564
	c6.758-2.517,12.843-6.744,17.583-12.4l18.932,11.122c2.348-1.094,4.588-2.416,6.704-3.929v-1.357
	C466.321,194.63,457.503,181.519,444.712,175.311z"/>
<path style="fill:#FE8F8D;" d="M128.954,291.822l-17.351-3.208c-1.661-0.307-3.208-0.894-4.608-1.695
	c-1.4,0.802-2.948,1.389-4.609,1.696l-17.342,3.207C68.214,294.933,56,309.612,56,326.729v13.79h102V326.73
	C158,309.613,145.786,294.934,128.954,291.822z"/>
<path style="fill:#FCB17E;" d="M84.011,314.031l22.147-27.637c-3.973-2.648-6.532-7.152-6.532-12.176v-3.858h-31.26v3.859
	c0,5.017-2.553,9.517-6.518,12.167L84.011,314.031z"/>
<path style="fill:#FFB954;" d="M84,171.481L84,171.481c-21.164,0-38.321,17.157-38.321,38.321v9.225h18.737
	c12.455,0,24.271-5.515,32.271-15.061l0,0l25.636,15.061v-9.225C122.321,188.638,105.164,171.481,84,171.481z"/>
<path style="fill:#D8FB93;" d="M301.081,130.341l-17.351-3.208c-0.826-0.153-1.623-0.378-2.39-0.659
	c-0.767,0.282-1.564,0.507-2.391,0.659l-17.342,3.207c-16.831,3.112-29.045,17.791-29.045,34.907v13.79h97.564v-13.789
	C330.127,148.132,317.913,133.452,301.081,130.341z"/>
<path style="fill:#FCB17E;" d="M256.138,152.55l22.147-27.637c-3.973-2.648-6.532-7.152-6.532-12.176v-3.858h-31.26v3.859
	c0,5.017-2.553,9.517-6.518,12.167L256.138,152.55z"/>
<path style="fill:#B3B6C3;" d="M272.627,13.727c-12.905,6.166-21.821,19.338-21.821,34.594v6.721
	c6.928-2.496,13.168-6.783,18.007-12.557l18.738,11.009c2.421-1.146,4.728-2.53,6.897-4.123V48.32
	C294.448,33.065,285.532,19.894,272.627,13.727z"/>
<g>
	<path style="fill:#FCB17E;" d="M294.448,380.509l-10.886-6.396c-4,1.132-8.174,1.729-12.418,1.729h-15.366
		c-1.61,0.828-3.269,1.556-4.973,2.171v15.497c0,16.313,9.395,30.424,23.065,37.24c12.229-6.402,20.578-19.204,20.578-33.964
		V380.509z"/>
	<path style="fill:#FCB17E;" d="M466.321,219.028l-10.975-6.448c-3.964,1.108-8.097,1.69-12.299,1.69h-15.221
		c-1.664,0.866-3.383,1.624-5.149,2.261v15.434c0,16.333,9.404,30.462,23.089,37.291c12.216-6.406,20.554-19.202,20.554-33.952
		v-16.276H466.321z"/>
	<path style="fill:#FCB17E;" d="M122.321,219.028l-9.935-5.837c-4.383,1.406-9,2.148-13.705,2.148H81.63
		c-0.968,0.434-1.953,0.832-2.952,1.193v16.184c0,16.091,9.294,30.006,22.804,36.687c12.37-6.355,20.839-19.233,20.839-34.098
		V219.028z"/>
	<path style="fill:#FCB17E;" d="M294.448,57.546l-11.371-6.68c-3.804,1.007-7.756,1.538-11.771,1.538h-14.623
		c-1.889,1.03-3.853,1.915-5.878,2.646v15.164c0,16.42,9.444,30.627,23.191,37.509c12.16-6.424,20.452-19.19,20.452-33.899V57.546z"
		/>
</g>
<path d="M55.735,278.383c-0.366,0.177-0.75,0.323-1.165,0.4l-17.343,3.206C15.656,285.977,0,304.793,0,326.729v13.79
	c0,5.522,4.477,10,10,10h148c5.523,0,10-4.478,10-10V326.73c0-21.937-15.657-40.753-37.227-44.74l-17.351-3.208
	c-0.405-0.075-0.781-0.216-1.139-0.386c-0.363-0.278-0.74-0.524-1.127-0.745c-0.501-0.455-0.896-1.016-1.159-1.645
	c13.411-8.596,22.325-23.622,22.325-40.701v-16.276v-7.531v-1.694c0-26.645-21.677-48.321-48.321-48.321S35.68,183.16,35.68,209.804
	v1.694v7.531v16.276c0,17.075,8.91,32.099,22.317,40.696c-0.266,0.636-0.665,1.204-1.173,1.662
	C56.45,277.877,56.086,278.115,55.735,278.383z M148,326.729v3.789H20v-3.79c0-12.293,8.774-22.839,20.862-25.074l17.344-3.206
	c0.14-0.026,0.273-0.067,0.412-0.095l17.584,21.933c1.898,2.368,4.769,3.745,7.803,3.745s5.905-1.379,7.802-3.746l17.575-21.931
	c0.136,0.028,0.266,0.068,0.403,0.093l17.351,3.208C139.226,303.891,148,314.436,148,326.729z M76.706,283.075
	c2.379,0.362,4.815,0.551,7.294,0.551c2.476,0,4.908-0.189,7.285-0.55c0.492,1.275,1.083,2.502,1.772,3.668l-9.054,11.298
	l-9.064-11.306C75.627,285.572,76.216,284.348,76.706,283.075z M84,181.481c12.421,0,23,8.037,26.81,19.185l-9.058-5.322
	c-4.213-2.474-9.594-1.544-12.73,2.199c-6.116,7.298-15.085,11.484-24.606,11.484H55.69C56.102,193.769,68.643,181.481,84,181.481z
	 M55.679,229.028h8.736c12.554,0,24.515-4.483,33.884-12.516l14.022,8.239v10.553c0,15.617-12.705,28.322-28.321,28.322
	s-28.321-12.705-28.321-28.322V229.028z"/>
<path d="M227.863,116.9c-0.366,0.177-0.751,0.323-1.167,0.4l-17.343,3.207c-21.57,3.988-37.226,22.805-37.226,44.741v13.79
	c0,5.523,4.477,10,10,10h148c5.523,0,10-4.477,10-10v-13.79c0-21.936-15.656-40.752-37.228-44.741l-17.351-3.208
	c-0.405-0.075-0.78-0.216-1.138-0.386c-0.363-0.278-0.74-0.524-1.127-0.745c-0.502-0.455-0.896-1.016-1.159-1.645
	c13.411-8.596,22.325-23.622,22.325-40.7V57.546v-7.53v-1.695C304.448,21.677,282.771,0,256.127,0s-48.321,21.677-48.321,48.321
	v1.695v7.53v16.277c0,17.075,8.91,32.099,22.318,40.696c-0.266,0.636-0.665,1.203-1.173,1.661
	C228.577,116.395,228.213,116.632,227.863,116.9z M320.127,165.248v3.79h-128v-3.79c0-12.294,8.774-22.839,20.863-25.074
	l17.342-3.207c0.14-0.026,0.274-0.067,0.413-0.095l17.584,21.934c1.898,2.368,4.769,3.746,7.803,3.745s5.905-1.378,7.803-3.747
	l17.574-21.93c0.136,0.027,0.267,0.068,0.404,0.093l17.351,3.208C311.353,142.409,320.127,152.955,320.127,165.248z
	 M248.834,121.594c2.379,0.362,4.815,0.551,7.293,0.551c2.476,0,4.908-0.189,7.285-0.55c0.492,1.275,1.083,2.502,1.772,3.668
	l-9.054,11.298l-9.064-11.306C247.754,124.091,248.343,122.866,248.834,121.594z M256.127,20c12.421,0,23,8.037,26.81,19.185
	l-9.058-5.322c-4.212-2.474-9.594-1.545-12.73,2.199c-6.116,7.298-15.085,11.484-24.606,11.484h-8.726
	C228.229,32.287,240.77,20,256.127,20z M227.806,67.546h8.736c12.554,0,24.515-4.483,33.884-12.516l14.022,8.239v10.554
	c0,15.616-12.705,28.321-28.321,28.321c-15.616,0-28.321-12.705-28.321-28.321L227.806,67.546L227.806,67.546z"/>
<path d="M340.127,502v-13.789c0-21.937-15.657-40.753-37.227-44.74l-17.351-3.208c-0.405-0.075-0.781-0.216-1.139-0.386
	c-0.363-0.278-0.74-0.524-1.127-0.745c-0.502-0.455-0.896-1.016-1.16-1.645c13.411-8.596,22.325-23.622,22.325-40.7V380.51v-7.53
	v-1.694c0-26.645-21.677-48.321-48.321-48.321s-48.321,21.677-48.321,48.321v1.694v7.53v16.277c0,17.075,8.91,32.099,22.317,40.696
	c-0.266,0.636-0.665,1.204-1.174,1.662c-0.372,0.214-0.734,0.451-1.084,0.718c-0.367,0.177-0.753,0.324-1.169,0.401l-17.343,3.207
	c-21.57,3.988-37.226,22.805-37.226,44.74V502c0,5.522,4.477,10,10,10h148C335.65,512,340.127,507.522,340.127,502z
	 M248.834,444.557c2.379,0.362,4.815,0.551,7.293,0.551c2.476,0,4.908-0.189,7.285-0.55c0.492,1.275,1.083,2.502,1.772,3.668
	l-9.054,11.298l-9.064-11.306C247.754,447.054,248.343,445.829,248.834,444.557z M256.127,342.963c12.421,0,23,8.037,26.81,19.185
	l-9.058-5.321c-4.212-2.476-9.594-1.544-12.73,2.199c-6.116,7.298-15.085,11.483-24.606,11.483h-8.726
	C228.229,355.249,240.77,342.963,256.127,342.963z M227.806,390.509h8.736c12.554,0,24.515-4.482,33.883-12.516l14.023,8.239v10.554
	c0,15.616-12.705,28.321-28.321,28.321c-15.616,0-28.321-12.705-28.321-28.321L227.806,390.509L227.806,390.509z M320.127,492h-128
	v-3.79c0-12.293,8.774-22.839,20.863-25.074l17.342-3.207c0.14-0.026,0.273-0.067,0.413-0.095l17.585,21.934
	c1.898,2.368,4.769,3.745,7.803,3.745c3.034,0,5.905-1.379,7.802-3.746l17.575-21.931c0.136,0.028,0.266,0.068,0.403,0.093
	l17.351,3.208c12.089,2.235,20.863,12.78,20.863,25.074L320.127,492L320.127,492z"/>
<path d="M474.773,281.989l-17.351-3.208c-0.405-0.075-0.781-0.216-1.139-0.386c-0.363-0.278-0.74-0.524-1.127-0.745
	c-0.501-0.455-0.896-1.016-1.159-1.645c13.411-8.596,22.325-23.622,22.325-40.701v-16.276v-7.531v-1.694
	c0-26.645-21.677-48.321-48.321-48.321c-26.644,0-48.321,21.677-48.321,48.321v1.694v7.531v16.276
	c0,17.075,8.91,32.099,22.317,40.696c-0.266,0.636-0.665,1.204-1.174,1.662c-0.373,0.215-0.737,0.453-1.088,0.72
	c-0.366,0.177-0.75,0.323-1.166,0.4l-17.343,3.206c-21.57,3.988-37.226,22.805-37.226,44.74v13.79c0,5.522,4.477,10,10,10h148
	c5.523,0,10-4.478,10-10v-13.789C512,304.793,496.343,285.977,474.773,281.989z M420.706,283.075
	c2.379,0.362,4.815,0.551,7.294,0.551c2.476,0,4.908-0.189,7.285-0.55c0.492,1.275,1.083,2.502,1.772,3.668l-9.054,11.298
	l-9.064-11.306C419.627,285.572,420.216,284.348,420.706,283.075z M428,181.481c12.421,0,23,8.037,26.81,19.185l-9.058-5.322
	c-4.212-2.474-9.594-1.544-12.73,2.199c-6.116,7.298-15.085,11.484-24.606,11.484h-8.726
	C400.102,193.769,412.643,181.481,428,181.481z M399.679,229.028h8.736c12.554,0,24.515-4.483,33.884-12.516l14.022,8.239v10.553
	c0,15.617-12.705,28.322-28.321,28.322c-15.616,0-28.321-12.705-28.321-28.322V229.028L399.679,229.028z M492,330.519H364v-3.79
	c0-12.293,8.774-22.839,20.862-25.074l17.344-3.206c0.14-0.026,0.273-0.067,0.412-0.095l17.584,21.933
	c1.898,2.368,4.769,3.745,7.803,3.745s5.905-1.379,7.802-3.746l17.575-21.931c0.136,0.028,0.266,0.068,0.403,0.093l17.351,3.208
	c12.089,2.235,20.863,12.78,20.863,25.074L492,330.519L492,330.519z"/>
<path d="M407.989,383.323c2.98,0,5.929-1.326,7.9-3.86l0.298-0.386c3.367-4.377,2.548-10.655-1.829-14.022
	c-4.377-3.368-10.656-2.549-14.023,1.829l-0.232,0.3c-3.391,4.359-2.605,10.643,1.754,14.033
	C403.681,382.637,405.843,383.323,407.989,383.323z"/>
<path d="M377.548,391.465c-12.982,11.657-27.519,21.367-43.204,28.859c-4.983,2.38-7.094,8.35-4.713,13.334
	c1.716,3.593,5.298,5.691,9.03,5.691c1.445,0,2.913-0.314,4.303-0.979c17.41-8.315,33.541-19.091,47.946-32.025
	c4.109-3.689,4.449-10.013,0.759-14.122C387.98,388.115,381.657,387.774,377.548,391.465z"/>
<path d="M168.419,438.075c1.399,0.674,2.878,0.993,4.333,0.993c3.721,0,7.293-2.085,9.016-5.661
	c2.397-4.976,0.307-10.952-4.668-13.35c-27.062-13.039-50.728-32.815-68.44-57.192c-3.246-4.467-9.499-5.459-13.968-2.212
	c-4.468,3.246-5.458,9.5-2.211,13.968C112.13,401.664,138.39,423.606,168.419,438.075z"/>
<path d="M106.113,146.074c2.763,0,5.615-1.145,7.789-3.805c0.019-0.023,0.038-0.046,0.056-0.069
	c3.974-4.954,2.397-11.097-1.421-14.174c-3.819-3.077-10.156-3.312-14.153,1.624c-3.996,4.936-2.447,11.086,1.358,14.181
	C101.488,145.25,103.768,146.074,106.113,146.074z"/>
<path d="M175.453,70.701c-16.959,7.381-32.846,17.082-47.218,28.83c-4.276,3.495-4.909,9.795-1.413,14.071
	c1.977,2.418,4.851,3.671,7.748,3.671c2.226,0,4.465-0.74,6.323-2.258c12.952-10.587,27.265-19.327,42.541-25.977
	c5.064-2.204,7.382-8.096,5.178-13.16C186.409,70.814,180.514,68.495,175.453,70.701z"/>
<path d="M404.925,151.353c1.947,2.766,5.042,4.244,8.186,4.244c1.989,0,3.998-0.592,5.748-1.824
	c4.516-3.179,5.599-9.417,2.42-13.934c-23.104-32.817-55.021-57.8-92.297-72.25c-5.151-1.996-10.942,0.561-12.938,5.71
	c-1.996,5.15,0.561,10.942,5.71,12.938C355.339,99.256,384.1,121.772,404.925,151.353z"/>
<g>
</g>
<g>
</g>
<g>
</g>
<g>
</g>
<g>
</g>
<g>
</g>
<g>
</g>
<g>
</g>
<g>
</g>
<g>
</g>
<g>
</g>
<g>
</g>
<g>
</g>
<g>
</g>
<g>
</g>
</svg>
