<svg height="511pt" viewBox="-26 1 511 511.999" width="511pt" xmlns="http://www.w3.org/2000/svg"><path d="m222.621094 419.765625h47.019531v42.015625h-47.019531zm0 0" fill="#7d91ff"/><path d="m408.65625 85.636719h-320.613281c-15.980469 5.246093-27.519531 20.277343-27.519531 38.011719v227.722656c.332031 12.003906 74.601562-1 96.703124-1l263.925782 65.390625c15.980468-5.246094 27.519531-20.277344 27.519531-38.011719v-252.097656c0-22.101563-17.914063-40.015625-40.015625-40.015625zm0 0" fill="#c9f3ff"/><path d="m448.671875 377.75v-28.011719h-368.140625v28.011719c0 22.097656 17.914062 40.011719 40.015625 40.011719h288.109375c22.101562 0 40.015625-17.914063 40.015625-40.011719zm0 0" fill="#9be3ff"/><path d="m278.667969 461.980469h-54.070313c-22.097656 0-40.015625 17.917969-40.015625 40.015625h134.101563c0-22.097656-17.914063-40.015625-40.015625-40.015625zm0 0" fill="#9be3ff"/><path d="m116.375 349.738281h-46.847656v-339.734375h320.121094v339.734375zm0 0" fill="#fff"/><path d="m127.546875 11.003906h262.101563v63.824219h-262.101563zm0 0" fill="#7d91ff"/><path d="m222.554688 376.675781c-1.871094 1.863281-2.929688 4.441407-2.929688 7.074219 0 2.628906 1.058594 5.210938 2.929688 7.070312 1.863281 1.863282 4.433593 2.933594 7.074218 2.933594 2.628906 0 5.210938-1.070312 7.070313-2.933594 1.863281-1.859374 2.933593-4.441406 2.933593-7.070312 0-2.632812-1.070312-5.210938-2.933593-7.074219-1.859375-1.859375-4.441407-2.929687-7.070313-2.929687-2.644531 0-5.210937 1.070312-7.074218 2.929687zm0 0"/><path d="m344.632812 407.757812c-2.632812 0-5.210937 1.070313-7.074218 2.933594-1.859375 1.859375-2.929688 4.441406-2.929688 7.070313 0 2.632812 1.070313 5.210937 2.929688 7.074219 1.863281 1.859374 4.441406 2.929687 7.074218 2.929687 2.628907 0 5.210938-1.070313 7.070313-2.929687 1.863281-1.863282 2.933594-4.441407 2.933594-7.074219 0-2.628907-1.070313-5.210938-2.933594-7.070313-1.859375-1.863281-4.441406-2.933594-7.070313-2.933594zm0 0"/><path d="m408.65625 75.632812h-9.003906v-65.628906c0-5.523437-4.476563-10.003906-10.003906-10.003906h-320.121094c-5.523438 0-10.003906 4.480469-10.003906 10.003906v65.628906h-9.003907c-27.582031 0-50.019531 22.4375-50.019531 50.019532v252.097656c0 27.578125 22.4375 50.015625 50.019531 50.015625h129.085938v24.234375c-27.132813.523438-49.042969 22.742188-49.042969 49.996094 0 5.523437 4.480469 10.003906 10.003906 10.003906h178.117188c5.523437 0 10.003906-4.480469 10.003906-10.003906 0-27.253906-21.914062-49.472656-49.042969-49.996094v-24.234375h27.980469c5.523438 0 10.003906-4.476563 10.003906-10.003906 0-5.523438-4.480468-10.003907-10.003906-10.003907h-257.105469c-16.550781 0-30.011719-13.460937-30.011719-30.007812v-18.007812h418.160157v18.007812c0 16.546875-13.460938 30.007812-30.011719 30.007812h-23.007812c-5.523438 0-10.003907 4.480469-10.003907 10.003907 0 5.527343 4.480469 10.003906 10.003907 10.003906h23.007812c27.582031 0 50.019531-22.4375 50.019531-50.015625v-252.097656c0-27.582032-22.4375-50.019532-50.019531-50.019532zm-101.691406 416.359376h-154.683594c4.128906-11.644532 15.257812-20.007813 28.300781-20.007813h98.085938c13.042969 0 24.167969 8.363281 28.296875 20.007813zm-47.328125-64.226563v24.011719h-60.023438v-24.011719zm120.007812-407.757813v44.816407h-300.113281v-44.816407zm-300.113281 319.726563v-130.851563c0-5.523437-4.480469-10.003906-10.003906-10.003906-5.523438 0-10.003906 4.480469-10.003906 10.003906v130.851563h-39.015626v-214.082031c0-16.550782 13.460938-30.011719 30.011719-30.011719h9.003907v35.210937c0 5.527344 4.480468 10.003907 10.003906 10.003907 5.523437 0 10.003906-4.476563 10.003906-10.003907v-46.019531h300.113281v254.902344zm320.121094 0v-244.09375h9.003906c16.550781 0 30.011719 13.460937 30.011719 30.011719v214.082031zm0 0"/><path d="m238.589844 52.421875h103.375c5.523437 0 10.003906-4.480469 10.003906-10.003906 0-5.527344-4.480469-10.003907-10.003906-10.003907h-103.375c-5.523438 0-10.003906 4.476563-10.003906 10.003907 0 5.523437 4.480468 10.003906 10.003906 10.003906zm0 0"/><path d="m141.28125 52.421875c2.632812 0 5.214844-1.070313 7.074219-2.933594 1.859375-1.859375 2.929687-4.441406 2.929687-7.070312 0-2.632813-1.066406-5.210938-2.929687-7.074219-1.859375-1.859375-4.441407-2.929688-7.074219-2.929688-2.640625 0-5.210938 1.070313-7.070312 2.929688-1.859376 1.863281-2.933594 4.433594-2.933594 7.074219 0 2.628906 1.070312 5.210937 2.933594 7.070312 1.859374 1.863281 4.441406 2.933594 7.070312 2.933594zm0 0"/><path d="m104.660156 52.421875c2.628906 0 5.210938-1.070313 7.070313-2.933594 1.871093-1.859375 2.933593-4.441406 2.933593-7.070312 0-2.632813-1.0625-5.210938-2.933593-7.074219-1.859375-1.859375-4.441407-2.929688-7.070313-2.929688-2.632812 0-5.210937 1.070313-7.074218 2.929688-1.859376 1.863281-2.929688 4.441406-2.929688 7.074219 0 2.628906 1.070312 5.210937 2.929688 7.070312 1.863281 1.863281 4.441406 2.933594 7.074218 2.933594zm0 0"/><path d="m177.898438 52.421875c2.640624 0 5.210937-1.070313 7.070312-2.933594 1.871094-1.859375 2.933594-4.441406 2.933594-7.070312 0-2.632813-1.0625-5.210938-2.933594-7.074219-1.859375-1.859375-4.441406-2.929688-7.070312-2.929688-2.632813 0-5.210938 1.070313-7.074219 2.929688-1.859375 1.863281-2.929688 4.441406-2.929688 7.074219 0 2.628906 1.070313 5.210937 2.929688 7.070312 1.863281 1.863281 4.441406 2.933594 7.074219 2.933594zm0 0"/><path d="m69.527344 159.863281c-2.632813 0-5.214844 1.070313-7.074219 2.929688-1.859375 1.863281-2.929687 4.441406-2.929687 7.074219 0 2.628906 1.066406 5.210937 2.929687 7.070312 1.859375 1.863281 4.441406 2.933594 7.074219 2.933594 2.628906 0 5.210937-1.070313 7.070312-2.933594 1.859375-1.859375 2.933594-4.441406 2.933594-7.070312 0-2.632813-1.070312-5.210938-2.933594-7.074219-1.859375-1.859375-4.441406-2.929688-7.070312-2.929688zm0 0"/><path d="m175.449219 163.25c-3.90625-3.90625-10.238281-3.90625-14.148438 0l-44.070312 44.074219c-3.910157 3.90625-3.910157 10.238281 0 14.148437l44.070312 44.070313c1.953125 1.953125 4.511719 2.929687 7.074219 2.929687 2.558594 0 5.121094-.976562 7.074219-2.929687 3.90625-3.90625 3.90625-10.242188 0-14.148438l-37-36.996093 37-36.996094c3.90625-3.910156 3.90625-10.242188 0-14.152344zm0 0"/><path d="m297.875 163.25c-3.90625-3.90625-10.238281-3.90625-14.148438 0-3.90625 3.90625-3.90625 10.242188 0 14.148438l36.996094 37-36.996094 36.996093c-3.90625 3.90625-3.90625 10.242188 0 14.148438 1.953126 1.953125 4.515626 2.929687 7.074219 2.929687 2.558594 0 5.121094-.976562 7.074219-2.929687l44.070312-44.074219c3.90625-3.90625 3.90625-10.238281 0-14.148438zm0 0"/><path d="m253 162.230469c-5.054688-2.246094-10.960938.03125-13.203125 5.078125l-38.699219 87.097656c-2.246094 5.050781.03125 10.960938 5.078125 13.207031 1.320313.585938 2.699219.863281 4.058594.863281 3.832031 0 7.488281-2.214843 9.148437-5.945312l38.699219-87.097656c2.242188-5.050782-.035156-10.960938-5.082031-13.203125zm0 0"/></svg>